<?xml version="1.0" standalone="no"?>
<!DOCTYPE svg PUBLIC "-//W3C//DTD SVG 20010904//EN"
 "http://www.w3.org/TR/2001/REC-SVG-20010904/DTD/svg10.dtd">
<svg version="1.0" xmlns="http://www.w3.org/2000/svg"
 width="500.000000pt" height="500.000000pt" viewBox="0 0 500.000000 500.000000"
 preserveAspectRatio="xMidYMid meet">
<metadata>
Created by potrace 1.14, written by Peter Selinger 2001-2017
</metadata>
<g transform="translate(0.000000,500.000000) scale(0.100000,-0.100000)"
fill="#000000" stroke="none">
<path d="M0 2500 l0 -2500 2500 0 2500 0 0 2500 0 2500 -2500 0 -2500 0 0
-2500z m1804 1378 c-4 -68 -10 -127 -15 -132 -8 -9 -4 124 7 212 10 81 14 41
8 -80z m-244 -38 c22 -62 39 -118 37 -124 -2 -6 -21 41 -42 104 -21 63 -40
122 -43 130 -3 8 -2 13 1 10 3 -3 24 -57 47 -120z m490 -40 c-30 -61 -58 -110
-62 -110 -4 0 18 52 49 115 32 63 59 112 62 109 3 -2 -19 -54 -49 -114z m-366
9 c4 -34 5 -64 2 -67 -3 -3 -6 3 -7 14 0 10 -4 40 -8 67 -4 26 -5 47 -1 47 4
0 11 -27 14 -61z m231 -24 c-10 -36 -20 -63 -22 -61 -2 2 4 33 13 70 10 36 20
63 22 61 3 -2 -4 -34 -13 -70z m-497 -170 c-5 -5 -161 170 -167 187 -2 6 36
-33 84 -86 48 -53 85 -99 83 -101z m61 116 c18 -29 30 -55 28 -58 -5 -5 -67
100 -67 112 0 12 4 6 39 -54z m635 -40 c-21 -28 -40 -49 -42 -47 -2 3 13 27
34 55 21 28 40 49 42 47 2 -3 -13 -27 -34 -55z m151 -17 c-38 -35 -83 -74
-100 -86 l-30 -21 25 25 c38 39 164 148 170 148 3 -1 -26 -30 -65 -66z m-945
-104 c19 -17 26 -27 15 -21 -11 5 -36 24 -55 41 -19 17 -26 26 -15 21 11 -6
36 -24 55 -41z m-79 -71 c34 -17 59 -33 56 -35 -5 -5 -227 103 -227 111 0 5
90 -34 171 -76z m1053 32 c-49 -30 -94 -52 -94 -46 0 7 103 65 115 65 6 0 -4
-9 -21 -19z m195 -56 c-9 -9 -241 -86 -246 -81 -2 2 49 22 114 44 115 40 141
47 132 37z m-1225 -106 c5 -4 -18 -1 -50 7 -32 9 -63 20 -68 25 -11 10 105
-21 118 -32z m-69 -99 l60 -7 -60 0 c-33 0 -94 3 -135 7 l-75 7 75 0 c41 1
102 -3 135 -7z m1134 -44 c9 -11 11 -155 9 -573 -4 -609 -4 -606 -65 -710 -37
-63 -124 -138 -191 -164 -72 -27 -226 -37 -303 -19 -119 28 -212 98 -264 200
-22 44 -55 142 -55 165 0 7 31 17 78 24 42 7 85 15 95 17 9 3 19 -1 22 -8 64
-184 120 -238 244 -238 75 0 106 12 153 57 72 70 73 78 73 613 l0 475 -137 3
-138 3 0 78 c0 43 3 81 7 84 3 4 109 7 233 7 184 0 230 -3 239 -14z m395 8
c14 -6 16 -72 16 -650 l0 -644 339 0 c186 0 353 -3 370 -6 l32 -7 -3 -76 -3
-76 -470 0 -470 0 -3 720 c-1 396 0 726 3 733 5 13 158 18 189 6z m-1484 -73
c-18 -10 -127 -25 -118 -16 6 6 84 22 118 24 13 0 13 -1 0 -8z m-80 -132 c-63
-21 -119 -39 -125 -38 -14 1 207 77 225 77 8 0 -37 -17 -100 -39z m134 -68
c-49 -30 -94 -52 -94 -46 0 7 103 65 115 65 6 0 -4 -9 -21 -19z m45 -108 c-24
-21 -67 -59 -96 -85 -29 -27 -56 -48 -60 -48 -9 0 4 13 107 104 47 41 87 73
88 71 2 -2 -16 -21 -39 -42z m76 -83 c-33 -46 -57 -69 -38 -37 20 34 68 95 72
92 2 -2 -13 -27 -34 -55z m61 -116 c-30 -60 -55 -106 -55 -102 -1 11 103 218
107 214 2 -2 -22 -53 -52 -112z m494 -29 c22 -65 38 -121 35 -123 -5 -6 -5 -7
-50 127 -34 101 -41 130 -30 119 3 -3 23 -58 45 -123z m-359 44 c-11 -35 -20
-58 -20 -51 -1 18 30 125 35 120 2 -2 -5 -33 -15 -69z m237 -54 c0 -26 -1 -25
-9 10 -4 22 -8 56 -7 75 0 33 1 32 9 -10 4 -25 7 -58 7 -75z m-117 18 c-1 -49
-7 -106 -12 -128 -7 -32 -8 -26 -4 30 3 39 5 96 5 128 0 31 3 57 8 57 4 0 5
-39 3 -87z"/>
</g>
</svg>
